<svg width="80" height="80" viewBox="0 0 80 80" fill="none" xmlns="http://www.w3.org/2000/svg">
<path d="M9.14053 6.64062C8.64299 6.64075 8.1568 6.78931 7.74417 7.06729C7.33154 7.34528 7.01123 7.74006 6.82422 8.20111C6.63721 8.66216 6.59201 9.16853 6.6944 9.65541C6.79679 10.1423 7.04212 10.5876 7.39899 10.9342L15.7323 19.2676C15.9627 19.5075 16.2386 19.6991 16.5439 19.831C16.8492 19.963 17.1778 20.0327 17.5104 20.0361C17.843 20.0395 18.173 19.9764 18.4809 19.8507C18.7888 19.725 19.0686 19.5391 19.3038 19.3039C19.539 19.0687 19.7249 18.7889 19.8506 18.481C19.9763 18.1731 20.0394 17.8431 20.036 17.5105C20.0326 17.1779 19.9629 16.8493 19.8309 16.544C19.699 16.2387 19.5074 15.9628 19.2675 15.7324L10.9341 7.39909C10.7011 7.15911 10.4223 6.96833 10.1142 6.83805C9.80613 6.70777 9.47503 6.64064 9.14053 6.64062ZM70.7844 6.64388C70.1351 6.6628 69.5187 6.93365 69.0657 7.39909L60.7323 15.7324C60.4924 15.9628 60.3008 16.2387 60.1689 16.544C60.0369 16.8493 59.9672 17.1779 59.9638 17.5105C59.9605 17.8431 60.0235 18.1731 60.1492 18.481C60.2749 18.7889 60.4608 19.0687 60.696 19.3039C60.9312 19.5391 61.211 19.725 61.5189 19.8507C61.8268 19.9764 62.1568 20.0394 62.4894 20.0361C62.822 20.0327 63.1506 19.963 63.4559 19.831C63.7612 19.6991 64.0371 19.5075 64.2675 19.2676L72.6008 10.9342C72.9615 10.583 73.2077 10.131 73.3073 9.63752C73.4068 9.14401 73.3551 8.63194 73.1588 8.16833C72.9625 7.70471 72.6308 7.31115 72.2072 7.03915C71.7835 6.76715 71.2877 6.62939 70.7844 6.64388ZM45.7584 6.66667C45.4009 6.67785 45.05 6.76558 44.7294 6.92393C44.4087 7.08229 44.1258 7.3076 43.8996 7.58464L13.8996 44.2513C13.6005 44.6175 13.4113 45.0611 13.3541 45.5306C13.2968 46 13.3739 46.476 13.5764 46.9034C13.7788 47.3308 14.0983 47.692 14.4978 47.9451C14.8973 48.1982 15.3603 48.3328 15.8332 48.3333H31.6666V70.8333C31.6673 71.3486 31.8271 71.851 32.1242 72.2719C32.4214 72.6928 32.8413 73.0117 33.3265 73.1848C33.8118 73.358 34.3387 73.377 34.8352 73.2392C35.3317 73.1015 35.7735 72.8138 36.1002 72.4154L66.1002 35.7487C66.3993 35.3825 66.5885 34.9389 66.6458 34.4695C66.703 34 66.6259 33.524 66.4234 33.0966C66.221 32.6692 65.9015 32.308 65.502 32.0549C65.1025 31.8018 64.6395 31.6672 64.1666 31.6667H48.3332V9.16667C48.3334 8.83198 48.2663 8.50067 48.136 8.19238C48.0057 7.8841 47.8148 7.60512 47.5747 7.37197C47.3345 7.13883 47.05 6.95627 46.738 6.83511C46.4261 6.71396 46.0929 6.65668 45.7584 6.66667ZM43.3332 16.1686V34.1667C43.3333 34.8297 43.5967 35.4655 44.0655 35.9344C44.5344 36.4032 45.1702 36.6666 45.8332 36.6667H58.8931L36.6666 63.8314V45.8333C36.6665 45.1703 36.4031 44.5345 35.9343 44.0656C35.4654 43.5968 34.8296 43.3334 34.1666 43.3333H21.1067L43.3332 16.1686ZM62.4739 59.974C61.9763 59.9741 61.4901 60.1226 61.0775 60.4006C60.6649 60.6786 60.3446 61.0734 60.1576 61.5344C59.9705 61.9955 59.9253 62.5019 60.0277 62.9887C60.1301 63.4756 60.3755 63.9209 60.7323 64.2676L69.0657 72.6009C69.296 72.8408 69.5719 73.0324 69.8773 73.1644C70.1826 73.2963 70.5112 73.366 70.8438 73.3694C71.1764 73.3728 71.5063 73.3098 71.8142 73.184C72.1222 73.0583 72.4019 72.8724 72.6371 72.6372C72.8723 72.402 73.0582 72.1223 73.1839 71.8143C73.3097 71.5064 73.3727 71.1765 73.3693 70.8439C73.3659 70.5113 73.2962 70.1827 73.1643 69.8774C73.0323 69.572 72.8407 69.2961 72.6008 69.0658L64.2675 60.7324C64.0345 60.4924 63.7556 60.3017 63.4475 60.1714C63.1395 60.0411 62.8084 59.974 62.4739 59.974ZM17.4511 59.9772C16.8018 59.9961 16.1854 60.267 15.7323 60.7324L7.39899 69.0658C7.15906 69.2961 6.96751 69.572 6.83555 69.8774C6.70359 70.1827 6.63388 70.5113 6.6305 70.8439C6.62712 71.1765 6.69013 71.5064 6.81586 71.8143C6.94158 72.1223 7.12748 72.402 7.36268 72.6372C7.59787 72.8724 7.87763 73.0583 8.18557 73.184C8.49351 73.3098 8.82344 73.3728 9.15604 73.3694C9.48864 73.366 9.81722 73.2963 10.1225 73.1644C10.4279 73.0324 10.7038 72.8408 10.9341 72.6009L19.2675 64.2676C19.6281 63.9163 19.8744 63.4644 19.9739 62.9709C20.0735 62.4773 20.0217 61.9653 19.8255 61.5017C19.6292 61.0381 19.2975 60.6445 18.8739 60.3725C18.4502 60.1005 17.9543 59.9627 17.4511 59.9772Z" fill="white"/>
</svg>
