<svg width="96" height="96" viewBox="0 0 96 96" fill="none" xmlns="http://www.w3.org/2000/svg">
<g clip-path="url(#clip0_166_1089)">
<path d="M91.6182 37.998C89.1982 37.998 87.6382 39.664 87.2362 42.38C86.8462 45.026 84.7242 59.674 84.6122 60.436C84.6882 59.226 84.2802 57.99 83.3542 57.064C81.6442 55.354 78.8702 55.354 77.1562 57.064L72.6202 61.6C66.6362 67.584 62.4902 66.702 59.0402 70.152C56.5442 72.648 55.5182 76.24 55.5182 81.38C55.5182 82.858 55.5162 84.236 55.5122 85.418C55.5062 87.604 57.2782 89.368 59.4642 89.368L72.9502 89.366C74.6802 89.366 76.1582 88.23 76.7182 86.592C77.2982 84.894 78.5522 82.772 81.2162 80.538C84.4022 77.864 87.5802 75.336 91.6162 71.298C94.5342 68.38 94.1942 63.022 95.9922 42.316C95.9602 39.928 94.0182 37.998 91.6182 37.998Z" fill="#FFB8DD"/>
<path d="M95.9981 42.27C95.9961 42.288 95.9961 42.302 95.9941 42.32C95.9941 42.34 96.0001 42.36 96.0001 42.38L95.9981 42.27Z" fill="#FFB8DD"/>
<path d="M14.7061 42.38C14.7061 42.36 14.7121 42.34 14.7121 42.32C14.7101 42.302 14.7101 42.288 14.7081 42.27L14.7061 42.38Z" fill="#FFB8DD"/>
<path d="M55.1879 81.382C55.1879 76.242 54.1599 72.65 51.6659 70.154C48.2139 66.702 44.0699 67.586 38.0859 61.602L33.5499 57.066C31.8379 55.356 29.0639 55.356 27.3519 57.066C26.4279 57.992 26.0199 59.226 26.0939 60.438C25.9839 59.674 23.8619 45.028 23.4699 42.382C23.0679 39.666 21.5079 38 19.0879 38C16.6879 38 14.7459 39.93 14.7119 42.322C16.5119 63.024 16.1699 68.382 19.0879 71.3C23.1239 75.338 26.3019 77.868 29.4879 80.54C32.1519 82.774 33.4079 84.898 33.9859 86.594C34.5459 88.23 36.0239 89.368 37.7539 89.368L51.2399 89.37C53.4259 89.37 55.1979 87.606 55.1919 85.42C55.1899 84.238 55.1879 82.86 55.1879 81.382Z" fill="#FFB8DD"/>
<path d="M80.5919 66.48C81.8359 65.36 83.1479 64.128 84.5639 62.71C87.5199 59.754 87.1719 54.326 88.9979 33.322L88.9999 33.434C88.9999 30.984 87.0139 28.998 84.5639 28.998C82.1139 28.998 80.5339 30.684 80.1279 33.434C79.7219 36.184 77.4619 51.786 77.4619 51.786" stroke="#18193F" stroke-width="6" stroke-miterlimit="10" stroke-linecap="round" stroke-linejoin="round"/>
<path d="M68.8822 61.892L76.2002 54.574C77.9322 52.842 77.9322 50.034 76.2002 48.3C74.4682 46.568 71.6602 46.568 69.9262 48.3L65.3342 52.892C59.2762 58.95 55.0802 58.056 51.5862 61.55C49.0602 64.076 48.0202 67.712 48.0202 72.916C48.0202 74.412 48.0182 75.806 48.0142 77.004C48.0082 79.218 49.8022 81.002 52.0142 81.002L65.6662 81C67.4162 81 68.9142 79.85 69.4802 78.192C69.8182 77.2 70.3862 76.066 71.3222 74.848" stroke="#18193F" stroke-width="6" stroke-miterlimit="10" stroke-linecap="round" stroke-linejoin="round"/>
<path d="M16.0881 36.924C15.8561 35.326 15.6701 34.054 15.5781 33.434C15.1721 30.684 13.5921 28.998 11.1421 28.998C8.69205 28.998 6.70605 30.984 6.70605 33.434L6.70806 33.322C8.53405 54.326 8.18605 59.754 11.1421 62.71C15.2281 66.798 18.4441 69.358 21.6701 72.064C24.3661 74.326 25.6381 76.474 26.2241 78.192C26.7901 79.848 28.2881 81 30.0381 81L43.6901 81.002C45.9041 81.002 47.6961 79.218 47.6901 77.004C47.6881 75.808 47.6841 74.412 47.6841 72.916C47.6841 67.712 46.6441 64.076 44.1181 61.55C40.6241 58.056 36.4281 58.95 30.3701 52.892L25.7801 48.3C24.0461 46.568 21.2381 46.568 19.5061 48.3C17.7741 50.034 17.7741 52.842 19.5061 54.574L26.8241 61.892" stroke="#18193F" stroke-width="6" stroke-miterlimit="10" stroke-linecap="round" stroke-linejoin="round"/>
<path d="M65.0679 31.152C66.1959 28.916 66.8799 26.568 66.8799 24.134C66.8799 18.586 62.3999 14 56.7459 14C53.0139 14 49.7059 16.026 47.9999 19.12C46.2939 16.026 42.9859 14 39.2539 14C37.6539 14 36.1599 14.32 34.8799 14.96" stroke="#18193F" stroke-width="6" stroke-miterlimit="10" stroke-linecap="round" stroke-linejoin="round"/>
<path d="M29.1201 24.134C29.1201 36.614 44.4801 46 48.0001 46C49.6001 46 53.6541 43.76 57.7061 40.346" stroke="#18193F" stroke-width="6" stroke-miterlimit="10" stroke-linecap="round" stroke-linejoin="round"/>
</g>
<defs>
<clipPath id="clip0_166_1089">
<rect width="96" height="96" fill="white"/>
</clipPath>
</defs>
</svg>
