<svg width="24" height="24" viewBox="0 0 24 24" fill="none" xmlns="http://www.w3.org/2000/svg">
<path d="M9.53636 1.48155C9.34519 1.4765 9.14456 1.48304 8.94065 1.50987C8.53284 1.56354 8.11042 1.69909 7.71897 1.98546C7.04342 2.47967 6.68213 3.43272 6.57835 4.70909C6.14951 4.8589 5.47562 5.12149 4.63499 5.66612C3.42368 6.45091 2.07987 7.77383 2.01292 9.72472C1.98147 10.6441 2.22248 12.1154 3.05198 13.4337C2.88666 13.9009 2.74046 14.4283 2.74046 15.0538C2.74046 17.2882 3.87584 18.6527 4.98362 19.3067C5.62591 19.686 6.19062 19.8412 6.61643 19.9239C6.75525 20.84 7.08947 21.5914 7.67991 21.9835C8.41643 22.4726 9.25061 22.5111 9.98362 22.5177C10.682 22.524 11.3562 22.3345 11.8811 21.9073C11.9228 21.8734 11.961 21.8351 12.0002 21.798C12.0395 21.8351 12.0776 21.8734 12.1194 21.9073C12.6442 22.3345 13.3184 22.524 14.0168 22.5177C14.7498 22.5111 15.584 22.4726 16.3205 21.9835C16.911 21.5914 17.2452 20.84 17.384 19.9239C17.8098 19.8412 18.3745 19.686 19.0168 19.3067C20.1246 18.6527 21.26 17.2882 21.26 15.0538C21.26 14.4283 21.1139 13.9009 20.9485 13.4337C21.778 12.1154 22.019 10.6441 21.9875 9.72472C21.9206 7.77383 20.5768 6.45091 19.3655 5.66612C18.5248 5.12149 17.8509 4.8589 17.4221 4.70909C17.3183 3.43272 16.957 2.47967 16.2815 1.98546C15.89 1.69909 15.4676 1.56354 15.0598 1.50987C14.652 1.45621 14.2584 1.48398 13.9241 1.52257C13.2658 1.59885 12.6386 1.87202 12.1389 2.31261C12.0891 2.35649 12.0473 2.41123 12.0002 2.45909C11.9531 2.41123 11.9113 2.35649 11.8616 2.31261C11.3618 1.87202 10.7346 1.59885 10.0764 1.52257C9.90924 1.50327 9.72753 1.48661 9.53636 1.48155ZM9.5139 2.98546C9.63839 2.98788 9.76877 2.99728 9.90354 3.0128H9.90452C10.2471 3.05271 10.6196 3.21738 10.8694 3.43761C11.1194 3.65802 11.2405 3.89524 11.2405 4.15148V7.00011H9.74925C9.63291 6.845 9.48209 6.71907 9.3087 6.63229C9.13531 6.54551 8.94411 6.50026 8.75022 6.50011C8.4187 6.50011 8.10076 6.6318 7.86634 6.86622C7.63192 7.10065 7.50022 7.41859 7.50022 7.75011C7.50022 8.08163 7.63192 8.39957 7.86634 8.63399C8.10076 8.86841 8.4187 9.00011 8.75022 9.00011C8.94411 8.99996 9.13531 8.9547 9.3087 8.86792C9.48209 8.78115 9.63291 8.65522 9.74925 8.50011H11.2405V15.7364C11.2401 15.7498 11.2401 15.7631 11.2405 15.7765V16.0001H9.74925C9.63291 15.845 9.48209 15.7191 9.3087 15.6323C9.13531 15.5455 8.94411 15.5003 8.75022 15.5001C8.4187 15.5001 8.10076 15.6318 7.86634 15.8662C7.63192 16.1006 7.50022 16.4186 7.50022 16.7501C7.50022 17.0816 7.63192 17.3996 7.86634 17.634C8.10076 17.8684 8.4187 18.0001 8.75022 18.0001C8.94411 18 9.13531 17.9547 9.3087 17.8679C9.48209 17.7811 9.63291 17.6552 9.74925 17.5001H11.2405V20.0411C11.2405 20.3988 11.1316 20.5841 10.9348 20.7442C10.738 20.9044 10.4124 21.0214 9.99729 21.0177C9.34328 21.0118 8.80172 20.9282 8.50999 20.7345C8.21825 20.5407 7.99046 20.2446 7.99046 19.2677C7.9905 19.0762 7.9173 18.8919 7.78584 18.7526C7.65438 18.6134 7.47462 18.5297 7.28343 18.5187C7.28343 18.5187 6.51354 18.4677 5.74632 18.0148C4.97909 17.5618 4.24046 16.8194 4.24046 15.0538C4.24046 14.8623 4.26508 14.6793 4.29905 14.5001H6.25022C6.44913 14.5001 6.63988 14.4211 6.78053 14.2804C6.92118 14.1398 7.0002 13.949 7.00022 13.7501V12.5001H7.7512C7.86753 12.6552 8.01836 12.7811 8.19175 12.8679C8.36513 12.9547 8.55633 13 8.75022 13.0001C9.08174 13.0001 9.39969 12.8684 9.63411 12.634C9.86853 12.3996 10.0002 12.0816 10.0002 11.7501C10.0002 11.4186 9.86853 11.1006 9.63411 10.8662C9.39969 10.6318 9.08174 10.5001 8.75022 10.5001C8.55633 10.5003 8.36513 10.5455 8.19175 10.6323C8.01836 10.7191 7.86753 10.845 7.7512 11.0001H6.25022C6.05132 11.0001 5.86056 11.0792 5.71992 11.2198C5.57927 11.3604 5.50024 11.5512 5.50022 11.7501V13.0001H4.52854C4.51166 12.9675 4.4924 12.9362 4.47093 12.9064C3.73333 11.9053 3.49026 10.4095 3.51194 9.7755C3.55599 8.49188 4.45047 7.57276 5.45042 6.92491C6.45036 6.27707 7.44651 5.98839 7.44651 5.98839C7.60314 5.94362 7.74094 5.84908 7.83908 5.71905C7.93721 5.58903 7.99035 5.43059 7.99046 5.26769C7.99046 3.89614 8.31473 3.40756 8.60472 3.19542C8.74971 3.08935 8.93927 3.02809 9.16038 3.00108C9.27079 2.9876 9.3894 2.98304 9.5139 2.98546ZM14.4866 2.98546C14.6112 2.98305 14.7295 2.98758 14.8401 3.00108C15.0612 3.02809 15.2507 3.08935 15.3957 3.19542C15.6857 3.40756 16.01 3.89614 16.01 5.26769C16.0101 5.43059 16.0632 5.58903 16.1614 5.71905C16.2595 5.84908 16.3973 5.94362 16.5539 5.98839C16.5539 5.98839 16.9624 6.11757 17.5002 6.36144V8.50011H16.2492C16.1329 8.345 15.9821 8.21907 15.8087 8.13229C15.6353 8.04551 15.4441 8.00026 15.2502 8.00011C14.9187 8.00011 14.6008 8.1318 14.3663 8.36622C14.1319 8.60065 14.0002 8.91859 14.0002 9.25011C14.0002 9.58163 14.1319 9.89957 14.3663 10.134C14.6008 10.3684 14.9187 10.5001 15.2502 10.5001C15.4441 10.5 15.6353 10.4547 15.8087 10.3679C15.9821 10.2811 16.1329 10.1552 16.2492 10.0001H18.2502C18.4491 10.0001 18.6399 9.92106 18.7805 9.78042C18.9212 9.63977 19.0002 9.44901 19.0002 9.25011V7.24718C19.8033 7.86773 20.4513 8.68996 20.4885 9.7755C20.5102 10.4095 20.2671 11.9053 19.5295 12.9064C19.4532 13.0098 19.4048 13.1312 19.3889 13.2587C19.373 13.3863 19.3901 13.5158 19.4387 13.6349C19.6205 14.0801 19.76 14.5422 19.76 15.0538C19.76 16.8194 19.0214 17.5618 18.2541 18.0148C17.4869 18.4677 16.717 18.5187 16.717 18.5187C16.5258 18.5297 16.3461 18.6134 16.2146 18.7526C16.0832 18.8919 16.0099 19.0762 16.01 19.2677C16.01 20.2446 15.7822 20.5407 15.4905 20.7345C15.1987 20.9282 14.6571 21.0118 14.0032 21.0177C13.588 21.0214 13.2624 20.9044 13.0657 20.7442C12.8689 20.5841 12.76 20.3988 12.76 20.0411V16.7638C12.7603 16.7504 12.7603 16.7371 12.76 16.7237V16.5001H16.7502C16.9491 16.5001 17.1399 16.4211 17.2805 16.2804C17.4212 16.1398 17.5002 15.949 17.5002 15.7501V14.2482C17.7093 14.0905 17.8636 13.8712 17.9413 13.6211C18.019 13.3711 18.0163 13.1029 17.9334 12.8545C17.8505 12.6061 17.6917 12.39 17.4794 12.2367C17.2671 12.0834 17.0121 12.0007 16.7502 12.0001C16.4881 12.0004 16.2327 12.083 16.0202 12.2364C15.8076 12.3897 15.6486 12.606 15.5657 12.8547C15.4828 13.1033 15.4801 13.3717 15.5581 13.622C15.6361 13.8722 15.7907 14.0916 16.0002 14.2491V15.0001H12.76V7.76378C12.7603 7.75044 12.7603 7.73709 12.76 7.72374V4.15148C12.76 3.89524 12.8811 3.65802 13.1311 3.43761C13.3809 3.21738 13.7534 3.05271 14.0959 3.0128C14.2309 2.99722 14.3619 2.98787 14.4866 2.98546Z" fill="#3D72E3"/>
</svg>
