<svg width="100" height="100" viewBox="0 0 100 100" fill="none" xmlns="http://www.w3.org/2000/svg">
<path d="M50 17.7083C44.9646 17.1271 38.5417 17.7083 38.5417 30.2083C38.5417 30.2083 9.375 38.5417 23.9583 61.4583L24.5792 61.3958C23.5458 63.7 22.9167 66.4896 22.9167 69.7917C22.9167 86.4583 38.5417 88.5417 38.5417 88.5417C38.5417 97.9417 44.2208 98.9063 50 98.9583C54.6396 99 58.3333 96.4042 58.3333 91.7646V25.5583C58.3333 21.3583 54.1708 18.1917 50 17.7083Z" fill="#F48FB1"/>
<path d="M92.7917 61.4583C107.375 38.5417 78.2083 30.2083 78.2083 30.2083C78.2083 17.7083 71.7854 17.1271 66.75 17.7083C62.5792 18.1917 58.4167 21.3583 58.4167 25.5583V91.7646C58.4167 96.4042 62.1104 99 66.75 98.9583C72.5292 98.9063 78.2083 97.9417 78.2083 88.5417C78.2083 88.5417 93.8333 86.4583 93.8333 69.7917C93.8333 66.4896 93.2042 63.7 92.1708 61.3958L92.7917 61.4583Z" fill="#F48FB1"/>
<path d="M11.4585 61.4587C11.4585 52.1196 15.912 45.5661 22.0445 43.1813C28.1735 40.7978 35.2425 42.9413 39.1382 49.4342C40.0259 50.9141 39.5458 52.8335 38.066 53.7213C36.586 54.6092 34.6668 54.129 33.7788 52.6491C31.4247 48.7256 27.556 47.7443 24.3101 49.0065C21.0675 50.2675 17.7085 54.1311 17.7085 61.4587C17.7086 68.6008 20.9635 72.3725 24.1294 74.4831C25.771 75.5774 27.4332 76.2458 28.6949 76.6383C29.3208 76.8331 29.835 76.9561 30.1783 77.028C30.3492 77.0638 30.4767 77.0863 30.5533 77.0993C30.5867 77.1049 30.6103 77.109 30.6236 77.111C32.175 77.319 33.3335 78.6431 33.3335 80.2086C33.3336 84.2526 34.5113 85.6627 35.4995 86.319C36.7965 87.1802 38.7992 87.4736 41.6949 87.4997C43.4543 87.5154 44.7795 87.0279 45.6001 86.36C46.3523 85.7477 46.8745 84.8399 46.8745 83.4313V17.2253C46.8745 16.2241 46.3875 15.1824 45.3306 14.2506C44.2594 13.3062 42.7762 12.6494 41.3072 12.4792V12.4782C38.8952 12.1999 37.1018 12.3583 35.8941 13.2419C34.8283 14.0217 33.3336 16.0615 33.3335 21.8747C33.3335 23.2688 32.4097 24.4943 31.0699 24.8786H31.0679L31.0669 24.8796C31.0628 24.8808 31.056 24.8835 31.0464 24.8864C31.0222 24.8936 30.9803 24.9058 30.9234 24.9235C30.8095 24.9589 30.633 25.0154 30.4029 25.0934C29.9413 25.2499 29.2674 25.492 28.4536 25.8258C26.816 26.4978 24.6591 27.52 22.5318 28.9254C18.1759 31.8033 14.6002 35.816 14.6685 41.2311C14.6903 42.9568 13.3091 44.3732 11.5835 44.3952C9.85778 44.417 8.44128 43.036 8.41947 41.3102C8.31087 32.7131 14.067 27.0275 19.0874 23.7106C21.6483 22.0188 24.1911 20.8189 26.0806 20.0436C26.4649 19.8859 26.8246 19.7455 27.1538 19.6208C27.5077 14.1647 29.197 10.3966 32.2036 8.19693C35.262 5.95955 38.9127 5.95851 41.5181 6.21646L42.0249 6.27018L42.0269 6.27115C44.7284 6.58433 47.4118 7.75258 49.4644 9.56217C51.5313 11.3845 53.1245 14.0265 53.1245 17.2253V83.4313C53.1245 86.6623 51.8 89.3726 49.5454 91.2077C47.3594 92.9868 44.518 93.7755 41.6382 93.7497C38.755 93.7237 35.0289 93.509 32.0415 91.5251C29.2867 89.6955 27.6738 86.7601 27.2183 82.7184C27.0953 82.6823 26.968 82.6464 26.8384 82.6061C25.1705 82.0872 22.927 81.1928 20.6626 79.6833C16.0161 76.5856 11.4586 70.9828 11.4585 61.4587ZM30.6314 77.112C30.6333 77.1122 30.6345 77.1128 30.6353 77.1129L30.6285 77.112C30.6295 77.1121 30.6306 77.1119 30.6314 77.112Z" fill="#18193F"/>
<path d="M35.4163 73.9583C35.4163 68.4212 33.638 67.1879 32.9779 66.8577C32.4923 66.615 31.9643 66.5365 31.5101 66.5365C31.2908 66.5365 31.1146 66.5554 31.0081 66.5706C30.956 66.5781 30.9233 66.5835 30.9144 66.5853C30.9157 66.585 30.9177 66.5849 30.9202 66.5843C30.9244 66.5834 30.9304 66.5822 30.9378 66.5804C30.9415 66.5795 30.946 66.5786 30.9505 66.5775L30.9622 66.5745L30.9613 66.5736C29.2884 66.989 27.5953 65.9719 27.1771 64.2991C26.7587 62.6249 27.7763 60.9287 29.4505 60.5101L30.2025 63.5179C29.479 60.6241 29.4534 60.5138 29.4544 60.5091C29.4552 60.5089 29.4578 60.5085 29.4593 60.5081C29.4624 60.5074 29.4657 60.506 29.4691 60.5052C29.4757 60.5036 29.4829 60.5021 29.4906 60.5003C29.5062 60.4966 29.5243 60.4921 29.5443 60.4876C29.584 60.4787 29.6324 60.4686 29.6888 60.4574C29.802 60.4347 29.9488 60.4082 30.1244 60.3831C30.4735 60.3333 30.9484 60.2865 31.5101 60.2865C32.6184 60.2865 34.175 60.468 35.7728 61.2669C39.2796 63.0203 41.6663 66.9966 41.6663 73.9583C41.6663 75.6842 40.2672 77.0833 38.5413 77.0833C36.8156 77.0832 35.4163 75.6841 35.4163 73.9583Z" fill="#18193F"/>
<path d="M36.5459 28.8603V28.8613C36.1415 27.1941 37.1582 25.5107 38.8252 25.0937C40.4996 24.6752 42.1966 25.6928 42.6152 27.3672L39.583 28.125C42.6147 27.3671 42.6158 27.3693 42.6162 27.3711C42.6164 27.3718 42.6169 27.373 42.6172 27.374C42.6178 27.3766 42.6184 27.3799 42.6191 27.3828C42.6205 27.3884 42.6214 27.3947 42.623 27.4014C42.6263 27.415 42.6306 27.4313 42.6348 27.4492C42.643 27.4849 42.6523 27.5291 42.6631 27.581C42.6848 27.6853 42.7118 27.8224 42.7383 27.9873C42.791 28.3153 42.846 28.7643 42.8682 29.2969C42.9116 30.3387 42.8333 31.8306 42.249 33.3887C41.6454 34.9984 40.5152 36.629 38.584 37.8174C36.6913 38.9821 34.2569 39.583 31.25 39.583C29.5241 39.583 28.125 38.1839 28.125 36.458C28.1252 34.7323 29.5242 33.333 31.25 33.333C33.451 33.333 34.6622 32.8928 35.3086 32.4951C35.9165 32.121 36.2189 31.6679 36.3965 31.1943C36.5934 30.6693 36.6457 30.0782 36.624 29.5576C36.6137 29.309 36.5879 29.1062 36.5674 28.9785C36.558 28.9205 36.55 28.8801 36.5459 28.8603ZM36.5498 28.876L36.5508 28.8799C36.5502 28.8776 36.5494 28.8753 36.5488 28.873C36.5491 28.874 36.5496 28.8749 36.5498 28.876ZM36.5488 28.8701V28.873C36.5479 28.8691 36.5468 28.8652 36.5459 28.8613C36.5465 28.8639 36.548 28.8667 36.5488 28.8701Z" fill="#18193F"/>
<path d="M66.8701 21.0166C67.3443 19.3572 69.074 18.3961 70.7334 18.8701L69.875 21.875C70.7291 18.8855 70.7348 18.8708 70.7363 18.8711C70.737 18.8713 70.739 18.8717 70.7402 18.8721C70.7428 18.8728 70.7457 18.874 70.749 18.875C70.756 18.877 70.765 18.8788 70.7754 18.8818C70.7963 18.888 70.8239 18.8969 70.8584 18.9072C70.9274 18.928 71.0233 18.957 71.1436 18.9951C71.3842 19.0715 71.7238 19.1832 72.1436 19.332C72.9821 19.6293 74.15 20.0777 75.4981 20.6904C78.1681 21.9041 81.6725 23.8204 84.7324 26.5889C87.7998 29.3642 90.5743 33.1413 91.4121 38.0479C92.257 42.9962 91.0469 48.5922 87.0947 54.8027C86.1681 56.2588 84.2363 56.6883 82.7803 55.7617C81.3243 54.8351 80.8957 52.9033 81.8223 51.4473C85.1615 46.1999 85.7742 42.16 85.252 39.1006C84.7225 35.9997 82.9402 33.3961 80.5391 31.2236C78.1304 29.0444 75.2541 27.4449 72.9111 26.3799C71.7528 25.8534 70.7552 25.4716 70.0557 25.2236C69.7066 25.0999 69.4333 25.01 69.2539 24.9531C69.1644 24.9247 69.098 24.9047 69.0576 24.8926L69.0166 24.8799L69.0137 24.8789H69.0147C69.0128 24.8784 69.0118 24.878 69.0117 24.8779H69.0127C67.3557 24.4022 66.3965 22.6747 66.8701 21.0166Z" fill="#18193F"/>
<path d="M46.9583 83.4314V17.2253C46.9583 14.0265 48.5524 11.3846 50.6195 9.56221C52.6722 7.75253 55.3553 6.58428 58.057 6.27119L58.058 6.27022C60.569 5.98032 64.2518 5.82969 67.4144 7.87666C68.8632 8.81445 69.2779 10.7491 68.3402 12.198C67.4024 13.6467 65.4677 14.0613 64.0189 13.1237C62.8108 12.3418 61.0643 12.2141 58.7757 12.4782L58.7767 12.4792C57.3076 12.6494 55.8236 13.3062 54.7523 14.2507C53.6956 15.1824 53.2083 16.2242 53.2083 17.2253V83.4314C53.2083 85.1572 51.8092 86.5564 50.0833 86.5564C48.3575 86.5564 46.9584 85.1572 46.9583 83.4314Z" fill="#18193F"/>
<path d="M82.375 61.4583C82.375 54.1307 79.016 50.2671 75.7734 49.0061C72.5275 47.7439 68.6589 48.726 66.3047 52.6497C65.4167 54.1295 63.4975 54.6088 62.0176 53.721C60.5376 52.833 60.0574 50.9138 60.9453 49.4339C64.8411 42.9409 71.9101 40.7974 78.0391 43.1809C84.1715 45.5658 88.625 52.1193 88.625 61.4583C88.625 62.2086 88.597 62.9396 88.54 63.6546C88.4029 65.3749 86.8971 66.6588 85.1768 66.5218C83.4563 66.3846 82.1724 64.8779 82.3096 63.1575C82.3525 62.6184 82.375 62.0536 82.375 61.4583Z" fill="#18193F"/>
<path d="M57.4686 27.3672C57.8872 25.6929 59.5833 24.6753 61.2577 25.0938C62.9206 25.5095 63.9362 27.1855 63.5399 28.8486C63.5408 28.8448 63.5406 28.8473 63.5389 28.8555C63.5352 28.8732 63.5265 28.9158 63.5165 28.9785C63.4959 29.1062 63.4702 29.3091 63.4598 29.5576C63.4382 30.0781 63.4895 30.6694 63.6864 31.1943C63.864 31.6679 64.1664 32.121 64.7743 32.4951C65.4205 32.8928 66.6318 33.333 68.8329 33.333C70.5586 33.333 71.9577 34.7323 71.9579 36.458C71.9579 38.1839 70.5587 39.583 68.8329 39.583C65.8261 39.583 63.3915 38.9821 61.4989 37.8174C59.5678 36.629 58.4385 34.9984 57.8348 33.3887C57.2505 31.8305 57.1713 30.3387 57.2147 29.2969C57.2369 28.7643 57.2928 28.3153 57.3456 27.9873C57.3721 27.8224 57.398 27.6853 57.4198 27.5811C57.4306 27.529 57.4409 27.485 57.4491 27.4492C57.4532 27.4313 57.4565 27.415 57.4598 27.4014C57.4614 27.3946 57.4633 27.3885 57.4647 27.3828C57.4654 27.3799 57.466 27.3766 57.4666 27.374C57.4669 27.373 57.4674 27.3718 57.4676 27.3711C57.4681 27.3693 57.4683 27.3671 60.4999 28.125L57.4686 27.3672Z" fill="#18193F"/>
<path d="M80.0817 80.0817C81.3021 78.8613 83.2812 78.8613 84.5016 80.0817L99.0846 94.6657C100.305 95.8861 100.305 97.8643 99.0846 99.0846C97.8643 100.305 95.8861 100.305 94.6657 99.0846L80.0817 84.5016C78.8613 83.2812 78.8613 81.3021 80.0817 80.0817Z" fill="#18193F"/>
<path d="M83.3337 71.8747C83.3335 65.4757 78.2737 60.4167 71.8747 60.4167C65.4758 60.4168 60.4168 65.4758 60.4167 71.8747C60.4167 73.6006 59.0176 74.9997 57.2917 74.9997C55.5658 74.9997 54.1667 73.6006 54.1667 71.8747C54.1668 62.024 62.024 54.1668 71.8747 54.1667C81.7255 54.1667 89.5835 62.0239 89.5837 71.8747C89.5837 81.7256 81.7256 89.5837 71.8747 89.5837C66.7509 89.5836 62.2374 87.2813 59.0407 84.0846C57.8203 82.8643 57.8203 80.8861 59.0407 79.6657C60.2611 78.4453 62.2393 78.4453 63.4596 79.6657C65.6794 81.8854 68.6655 83.3336 71.8747 83.3337C78.2738 83.3337 83.3337 78.2738 83.3337 71.8747Z" fill="#18193F"/>
</svg>
