<svg width="80" height="85" viewBox="0 0 80 85" fill="none" xmlns="http://www.w3.org/2000/svg">
<path d="M30.1044 0.00629175C29.3397 -0.0139394 28.5372 0.0122484 27.7216 0.119573C26.0903 0.334223 24.4007 0.87645 22.8349 2.02192C20.1327 3.99875 18.6875 7.81096 18.2724 12.9164C16.557 13.5157 13.8615 14.5661 10.4989 16.7446C5.65372 19.8837 0.278457 25.1754 0.0106591 32.9789C-0.115141 36.6563 0.84891 42.5417 4.16691 47.8149C3.50563 49.6836 2.92082 51.7931 2.92082 54.2954C2.92082 63.2329 7.46236 68.6909 11.8935 71.3071C14.4626 72.8239 16.7215 73.4448 18.4247 73.7758C18.98 77.44 20.3169 80.4456 22.6786 82.0141C25.6247 83.9706 28.9614 84.1244 31.8935 84.1508C34.687 84.1759 37.384 83.4182 39.4833 81.7094C39.6502 81.5736 39.8029 81.4203 39.9599 81.2719C40.1168 81.4203 40.2696 81.5736 40.4364 81.7094C42.5358 83.4182 45.2327 84.1759 48.0263 84.1508C50.9583 84.1244 54.2951 83.9706 57.2411 82.0141C59.6029 80.4456 60.9398 77.44 61.495 73.7758C63.1983 73.4448 65.4571 72.8239 68.0263 71.3071C72.4574 68.6909 76.9989 63.2329 76.9989 54.2954C76.9989 51.7931 76.4144 49.6837 75.7528 47.8149C79.0708 42.5417 80.0349 36.6563 79.9091 32.9789C79.6413 25.1754 74.266 19.8837 69.4208 16.7446C66.0583 14.5661 63.3627 13.5157 61.6474 12.9164C61.2323 7.81096 59.7871 3.99875 57.0849 2.02192C55.5191 0.87645 53.8294 0.334223 52.1982 0.119573C50.5669 -0.0950762 48.9924 0.0159919 47.6552 0.170354C45.0224 0.475458 42.5135 1.56817 40.5146 3.33051C40.3155 3.50603 40.1484 3.72499 39.9599 3.91645C39.7714 3.72499 39.6043 3.50603 39.4052 3.33051C37.4062 1.56817 34.8974 0.475458 32.2646 0.170354C31.5959 0.093173 30.8691 0.026523 30.1044 0.00629175ZM30.0146 6.02192C30.5126 6.03159 31.0341 6.06918 31.5732 6.13129H31.5771C32.9473 6.2909 34.4372 6.9496 35.4364 7.83051C36.4365 8.71217 36.9208 9.66105 36.9208 10.686V22.0805H30.956C30.4906 21.4601 29.8873 20.9564 29.1938 20.6092C28.5002 20.2621 27.7354 20.0811 26.9599 20.0805C25.6338 20.0805 24.362 20.6073 23.4243 21.545C22.4867 22.4827 21.9599 23.7544 21.9599 25.0805C21.9599 26.4066 22.4867 27.6784 23.4243 28.616C24.362 29.5537 25.6338 30.0805 26.9599 30.0805C27.7354 30.0799 28.5002 29.8989 29.1938 29.5518C29.8873 29.2047 30.4906 28.701 30.956 28.0805H36.9208V57.0258C36.9194 57.0792 36.9194 57.1326 36.9208 57.186V58.0805H30.956C30.4906 57.4601 29.8873 56.9564 29.1938 56.6092C28.5002 56.2621 27.7354 56.0811 26.9599 56.0805C25.6338 56.0805 24.362 56.6073 23.4243 57.545C22.4867 58.4827 21.9599 59.7544 21.9599 61.0805C21.9599 62.4066 22.4867 63.6784 23.4243 64.6161C24.362 65.5537 25.6338 66.0805 26.9599 66.0805C27.7354 66.0799 28.5002 65.8989 29.1938 65.5518C29.8873 65.2047 30.4906 64.701 30.956 64.0805H36.9208V74.2446C36.9208 75.6754 36.4853 76.4164 35.6982 77.0571C34.911 77.6978 33.6086 78.1657 31.9482 78.1508C29.3321 78.1272 27.1659 77.793 25.9989 77.018C24.832 76.243 23.9208 75.0587 23.9208 71.1508C23.921 70.3848 23.6282 69.6477 23.1023 69.0906C22.5765 68.5335 21.8575 68.1987 21.0927 68.1547C21.0927 68.1547 18.0131 67.951 14.9443 66.1391C11.8754 64.3272 8.92082 61.3579 8.92082 54.2954C8.92082 53.5292 9.01931 52.7975 9.15519 52.0805H16.9599C17.7555 52.0804 18.5185 51.7643 19.0811 51.2017C19.6437 50.6391 19.9598 49.8761 19.9599 49.0805V44.0805H22.9638C23.4291 44.701 24.0324 45.2047 24.726 45.5518C25.4195 45.8989 26.1843 46.0799 26.9599 46.0805C28.286 46.0805 29.5577 45.5537 30.4954 44.616C31.4331 43.6784 31.9599 42.4066 31.9599 41.0805C31.9599 39.7544 31.4331 38.4827 30.4954 37.545C29.5577 36.6073 28.286 36.0805 26.9599 36.0805C26.1843 36.0811 25.4195 36.2621 24.726 36.6092C24.0324 36.9564 23.4291 37.4601 22.9638 38.0805H16.9599C16.1643 38.0806 15.4012 38.3967 14.8386 38.9593C14.2761 39.5219 13.96 40.2849 13.9599 41.0805V46.0805H10.0732C10.0056 45.95 9.92859 45.8247 9.84269 45.7055C6.89232 41.7011 5.92001 35.7179 6.00675 33.1821C6.18295 28.0476 9.76088 24.3711 13.7607 21.7797C17.7604 19.1884 21.745 18.0336 21.745 18.0336C22.3716 17.8546 22.9227 17.4764 23.3153 16.9563C23.7078 16.4362 23.9204 15.8024 23.9208 15.1508C23.9208 9.66466 25.2179 7.71033 26.3778 6.86176C26.9578 6.43748 27.7161 6.19245 28.6005 6.08442C29.0421 6.03047 29.5166 6.01224 30.0146 6.02192ZM49.9052 6.02192C50.4038 6.01227 50.877 6.0304 51.3193 6.08442C52.2037 6.19245 52.9619 6.43748 53.5419 6.86176C54.7018 7.71033 55.9989 9.66466 55.9989 15.1508C55.9994 15.8024 56.2119 16.4362 56.6045 16.9563C56.997 17.4764 57.5482 17.8546 58.1747 18.0336C58.1747 18.0336 59.8086 18.5504 61.9599 19.5258V28.0805H56.956C56.4906 27.4601 55.8873 26.9564 55.1938 26.6092C54.5002 26.2621 53.7354 26.0811 52.9599 26.0805C51.6338 26.0805 50.362 26.6073 49.4243 27.545C48.4867 28.4827 47.9599 29.7544 47.9599 31.0805C47.9599 32.4066 48.4867 33.6784 49.4243 34.616C50.362 35.5537 51.6338 36.0805 52.9599 36.0805C53.7354 36.0799 54.5002 35.8989 55.1938 35.5518C55.8873 35.2047 56.4906 34.701 56.956 34.0805H64.9599C65.7555 34.0804 66.5185 33.7643 67.0811 33.2017C67.6437 32.6391 67.9598 31.8761 67.9599 31.0805V23.0688C71.1723 25.551 73.764 28.8399 73.913 33.1821C73.9997 35.7179 73.0274 41.7011 70.0771 45.7055C69.7719 46.1194 69.5781 46.6048 69.5145 47.1151C69.4509 47.6253 69.5195 48.1434 69.7138 48.6196C70.4411 50.4006 70.9989 52.2488 70.9989 54.2954C70.9989 61.3579 68.0444 64.3272 64.9755 66.1391C61.9066 67.951 58.8271 68.1547 58.8271 68.1547C58.0623 68.1987 57.3433 68.5335 56.8174 69.0906C56.2916 69.6477 55.9988 70.3848 55.9989 71.1508C55.9989 75.0587 55.0878 76.243 53.9208 77.018C52.7539 77.793 50.5876 78.1272 47.9716 78.1508C46.3112 78.1658 45.0088 77.6978 44.2216 77.0571C43.4344 76.4164 42.9989 75.6754 42.9989 74.2446V61.1352C43.0004 61.0818 43.0004 61.0284 42.9989 60.975V60.0805H58.9599C59.7555 60.0804 60.5185 59.7643 61.0811 59.2017C61.6437 58.6391 61.9598 57.8761 61.9599 57.0805V51.0727C62.7962 50.4421 63.4133 49.5647 63.7242 48.5645C64.0351 47.5643 64.024 46.4917 63.6925 45.4981C63.361 44.5045 62.7259 43.6401 61.8767 43.0269C61.0276 42.4137 60.0073 42.0827 58.9599 42.0805C57.9115 42.0816 56.8899 42.4122 56.0397 43.0256C55.1894 43.639 54.5535 44.5042 54.2219 45.4987C53.8902 46.4933 53.8796 47.567 54.1914 48.5679C54.5033 49.5689 55.122 50.4465 55.9599 51.0766V54.0805H42.9989V25.1352C43.0004 25.0818 43.0004 25.0284 42.9989 24.975V10.686C42.9989 9.66105 43.4833 8.71217 44.4833 7.83051C45.4825 6.9496 46.9725 6.2909 48.3427 6.13129C48.8826 6.06897 49.4066 6.03156 49.9052 6.02192Z" fill="#3D72E3"/>
</svg>
