<svg width="80" height="80" viewBox="0 0 80 80" fill="none" xmlns="http://www.w3.org/2000/svg">
<path d="M39.9608 4.96417C39.2983 4.97452 38.667 5.2474 38.2056 5.72286C37.7442 6.19832 37.4903 6.83749 37.4998 7.49998V13.1315L36.7674 12.3991C36.5371 12.1591 36.2611 11.9676 35.9558 11.8356C35.6505 11.7037 35.3219 11.634 34.9893 11.6306C34.6567 11.6272 34.3268 11.6902 34.0188 11.8159C33.7109 11.9417 33.4311 12.1276 33.1959 12.3628C32.9608 12.598 32.7748 12.8777 32.6491 13.1856C32.5234 13.4936 32.4604 13.8235 32.4638 14.1561C32.4672 14.4887 32.5369 14.8173 32.6688 15.1226C32.8008 15.4279 32.9923 15.7039 33.2323 15.9342L38.0174 20.7194C38.2517 21.0249 38.5534 21.2721 38.8989 21.4419C39.2445 21.6117 39.6246 21.6993 40.0096 21.6981C40.3946 21.6968 40.7741 21.6067 41.1185 21.4346C41.4629 21.2626 41.763 21.0134 41.9953 20.7064L46.7674 15.9342C47.0073 15.7039 47.1989 15.4279 47.3309 15.1226C47.4628 14.8173 47.5325 14.4887 47.5359 14.1561C47.5393 13.8235 47.4763 13.4936 47.3506 13.1856C47.2248 12.8777 47.0389 12.598 46.8037 12.3628C46.5685 12.1276 46.2888 11.9417 45.9808 11.8159C45.6729 11.6902 45.343 11.6272 45.0104 11.6306C44.6778 11.634 44.3492 11.7037 44.0439 11.8356C43.7385 11.9676 43.4626 12.1591 43.2323 12.3991L42.4998 13.1315V7.49998C42.5046 7.16537 42.4422 6.8332 42.3163 6.52316C42.1903 6.21312 42.0034 5.93152 41.7667 5.69504C41.5299 5.45856 41.248 5.27202 40.9378 5.14648C40.6276 5.02094 40.2954 4.95894 39.9608 4.96417ZM39.9998 26.6666C36.8748 26.6666 34.2145 27.9285 32.5063 29.8502C30.7982 31.7719 29.9998 34.2361 29.9998 36.6666C29.9998 39.0972 30.7982 41.5613 32.5063 43.483C34.2145 45.4048 36.8748 46.6666 39.9998 46.6666C43.1248 46.6666 45.7851 45.4048 47.4933 43.483C49.2015 41.5613 49.9998 39.0972 49.9998 36.6666C49.9998 34.2361 49.2015 31.7719 47.4933 29.8502C45.7851 27.9285 43.1248 26.6666 39.9998 26.6666ZM19.1665 31.6666C16.8748 31.6666 14.8395 32.616 13.548 34.069C12.2565 35.5219 11.6665 37.3611 11.6665 39.1666C11.6665 40.9722 12.2565 42.8113 13.548 44.2643C14.8395 45.7173 16.8748 46.6666 19.1665 46.6666C21.4582 46.6666 23.4935 45.7173 24.785 44.2643C26.0765 42.8113 26.6665 40.9722 26.6665 39.1666C26.6665 37.3611 26.0765 35.5219 24.785 34.069C23.4935 32.616 21.4582 31.6666 19.1665 31.6666ZM39.9998 31.6666C41.8748 31.6666 42.9645 32.2798 43.7563 33.1705C44.5482 34.0613 44.9998 35.3472 44.9998 36.6666C44.9998 37.9861 44.5482 39.2719 43.7563 40.1627C42.9645 41.0535 41.8748 41.6666 39.9998 41.6666C38.1248 41.6666 37.0351 41.0535 36.2433 40.1627C35.4515 39.2719 34.9998 37.9861 34.9998 36.6666C34.9998 35.3472 35.4515 34.0613 36.2433 33.1705C37.0351 32.2798 38.1248 31.6666 39.9998 31.6666ZM60.8332 31.6666C58.5415 31.6666 56.5062 32.616 55.2147 34.069C53.9232 35.5219 53.3332 37.3611 53.3332 39.1666C53.3332 40.9722 53.9232 42.8113 55.2147 44.2643C56.5062 45.7173 58.5415 46.6666 60.8332 46.6666C63.1248 46.6666 65.1601 45.7173 66.4517 44.2643C67.7432 42.8113 68.3332 40.9722 68.3332 39.1666C68.3332 37.3611 67.7432 35.5219 66.4517 34.069C65.1601 32.616 63.1248 31.6666 60.8332 31.6666ZM19.1665 36.6666C20.2082 36.6666 20.6729 36.9673 21.048 37.3893C21.4232 37.8113 21.6665 38.4722 21.6665 39.1666C21.6665 39.8611 21.4232 40.5219 21.048 40.944C20.6729 41.366 20.2082 41.6666 19.1665 41.6666C18.1248 41.6666 17.6601 41.366 17.285 40.944C16.9098 40.5219 16.6665 39.8611 16.6665 39.1666C16.6665 38.4722 16.9098 37.8113 17.285 37.3893C17.6601 36.9673 18.1248 36.6666 19.1665 36.6666ZM60.8332 36.6666C61.8748 36.6666 62.3395 36.9673 62.7147 37.3893C63.0898 37.8113 63.3332 38.4722 63.3332 39.1666C63.3332 39.8611 63.0898 40.5219 62.7147 40.944C62.3395 41.366 61.8748 41.6666 60.8332 41.6666C59.7915 41.6666 59.3268 41.366 58.9517 40.944C58.5765 40.5219 58.3332 39.8611 58.3332 39.1666C58.3332 38.4722 58.5765 37.8113 58.9517 37.3893C59.3268 36.9673 59.7915 36.6666 60.8332 36.6666ZM11.52 50C8.84502 50 6.6665 52.286 6.6665 55.0944V56.3867C6.6665 62.3417 11.9232 66.6666 19.1665 66.6666C20.4515 66.6666 21.6674 66.5262 22.8091 66.2695C21.8224 64.8195 21.0738 63.2437 20.5988 61.582C20.1255 61.6353 19.6465 61.6666 19.1665 61.6666C15.4332 61.6666 11.6665 60.0334 11.6665 56.3867L11.7056 55H20.0422C20.2138 53.1116 20.956 51.385 22.1027 50H11.52ZM29.1665 50C25.9749 50 23.3332 52.6417 23.3332 55.8333V57.5C23.3332 65.6677 31.3391 71.6666 39.9998 71.6666C48.6606 71.6666 56.6665 65.6677 56.6665 57.5V55.8333C56.6665 52.6417 54.0248 50 50.8332 50H29.1665ZM57.897 50C59.042 51.385 59.7859 53.1116 59.9575 55H68.356C68.3343 55.01 68.3232 55.036 68.3332 55.0944V56.3867C68.3332 60.0334 64.5665 61.6666 60.8332 61.6666C60.3532 61.6666 59.8742 61.6353 59.4009 61.582C58.9259 63.2437 58.1773 64.8195 57.1906 66.2695C58.3323 66.5262 59.5482 66.6666 60.8332 66.6666C68.0765 66.6666 73.3332 62.3417 73.3332 56.3867V55.0944C73.3332 52.286 71.1547 50 68.4797 50H57.897ZM29.1665 55H50.8332C51.3249 55 51.6665 55.3416 51.6665 55.8333V57.5C51.6665 62.2189 46.3391 66.6666 39.9998 66.6666C33.6606 66.6666 28.3332 62.2189 28.3332 57.5V55.8333C28.3332 55.3416 28.6748 55 29.1665 55Z" fill="white"/>
</svg>
