<svg width="32" height="32" viewBox="0 0 32 32" fill="none" xmlns="http://www.w3.org/2000/svg">
<g clip-path="url(#clip0_196_1225)">
<path d="M30.1521 14.9981L28.9582 13.805C28.5916 13.4384 28.4921 12.8774 28.7117 12.4073L29.4252 10.8784C29.923 9.81252 29.8693 8.56887 29.2798 7.54961C28.692 6.53114 27.6419 5.8619 26.4694 5.75998L24.7872 5.6138C24.2712 5.56877 23.8343 5.20215 23.7008 4.70121L23.2646 3.07119C22.9604 1.93499 22.1197 1.01608 21.0136 0.613904C19.9082 0.211731 18.674 0.374497 17.7108 1.04926L16.3281 2.01795C15.9038 2.31504 15.3334 2.31504 14.9091 2.01795L13.5271 1.04926C12.564 0.374497 11.3306 0.211731 10.2236 0.613904C9.11825 1.01608 8.27677 1.93499 7.97257 3.07119L7.53642 4.702C7.40289 5.20215 6.96595 5.56877 6.45 5.6138L4.76783 5.75998C3.59607 5.8619 2.54521 6.53114 1.95657 7.54961C1.36872 8.56808 1.3142 9.81252 1.81198 10.8776L2.52546 12.4073C2.74511 12.8766 2.64556 13.4384 2.27894 13.805L1.08585 14.9973C0.253062 15.8285 -0.121457 17.0169 0.0823951 18.1744C0.286247 19.3327 1.04477 20.3212 2.11064 20.8174L3.64111 21.5308C4.11123 21.7497 4.39568 22.2427 4.34985 22.7595L4.2021 24.4401C4.09859 25.6118 4.57583 26.7622 5.47578 27.5184C6.37652 28.2745 7.59252 28.544 8.72872 28.239L10.3587 27.8013C10.8597 27.6685 11.3954 27.8613 11.6917 28.2864L12.6596 29.6691C13.3399 30.6346 14.4445 31.2099 15.6218 31.2099C16.7975 31.2099 17.9028 30.6346 18.5768 29.6707L19.5447 28.2872C19.8418 27.8621 20.3791 27.6693 20.8777 27.8021L22.5077 28.2398C23.6431 28.544 24.8591 28.2753 25.7598 27.5192C26.6614 26.763 27.1378 25.6118 27.0343 24.4409L26.8865 22.7587C26.8407 22.2427 27.1259 21.7497 27.5961 21.5301L29.125 20.8174C30.1924 20.3212 30.9509 19.3327 31.154 18.1744C31.3586 17.0169 30.9841 15.8293 30.1521 14.9981ZM22.1719 12.6902L14.2706 20.5914C14.0391 20.8229 13.7357 20.9382 13.4323 20.9382C13.1289 20.9382 12.8255 20.8229 12.594 20.5914L8.64338 16.6408C8.18037 16.1785 8.18037 15.4271 8.64338 14.9649C9.10639 14.5019 9.85622 14.5019 10.3192 14.9649L13.4315 18.0772L20.4944 11.0143C20.9575 10.5513 21.7073 10.5513 22.1703 11.0143C22.6341 11.4765 22.6341 12.2271 22.1719 12.6902Z" fill="white"/>
</g>
<defs>
<clipPath id="clip0_196_1225">
<rect width="32" height="32" fill="white"/>
</clipPath>
</defs>
</svg>
