<svg width="80" height="80" viewBox="0 0 80 80" fill="none" xmlns="http://www.w3.org/2000/svg">
<path d="M40.0327 4.97407C39.4214 4.9664 38.8285 5.18295 38.366 5.5828C38.366 5.5828 32.1433 10.9601 25.9377 19.0105C19.732 27.061 13.3335 37.8631 13.3335 49.2775C13.3335 63.5086 25.355 75.0001 40.0002 75.0001C54.6453 75.0001 66.6668 63.5086 66.6668 49.2775C66.6668 37.8631 60.2683 27.061 54.0627 19.0105C47.857 10.9601 41.6343 5.5828 41.6343 5.5828C41.1888 5.1976 40.6216 4.98202 40.0327 4.97407ZM40.0002 10.9213C41.8051 12.5816 45.537 16.1388 50.1043 22.0639C55.982 29.6889 61.6668 39.7901 61.6668 49.2775C61.6668 56.3387 57.9839 62.5845 52.3276 66.3282C52.4789 65.9443 52.6192 65.5525 52.7378 65.1531C53.1249 63.8488 53.3335 62.4678 53.3335 61.0418C53.3335 55.0105 50.4109 48.5531 47.6174 43.3823C44.8238 38.2115 42.0216 34.3621 42.0216 34.3621C41.7752 34.0232 41.4475 33.7517 41.0686 33.5725C40.6898 33.3933 40.272 33.3122 39.8537 33.3367C39.4848 33.3584 39.1253 33.4617 38.8011 33.639C38.4769 33.8163 38.196 34.0632 37.9787 34.3621C37.9787 34.3621 35.1765 38.2115 32.383 43.3823C29.5895 48.5531 26.6668 55.0105 26.6668 61.0418C26.6668 62.4678 26.8754 63.8488 27.2625 65.1531C27.3811 65.5525 27.5214 65.9443 27.6727 66.3282C22.0164 62.5845 18.3335 56.3387 18.3335 49.2775C18.3335 39.7901 24.0183 29.6889 29.896 22.0639C34.4634 16.1388 38.1952 12.5816 40.0002 10.9213ZM40.0002 40.5665C41.0014 42.0583 41.6053 42.7767 43.2163 45.7586C45.8395 50.614 48.3335 56.7614 48.3335 61.0418C48.3335 66.0928 44.5545 70.0001 40.0002 70.0001C35.4458 70.0001 31.6668 66.0928 31.6668 61.0418C31.6668 60.5067 31.7042 59.9428 31.7775 59.3556C32.2907 55.2451 34.4888 50.0071 36.784 45.7586C38.395 42.7767 38.9989 42.0583 40.0002 40.5665Z" fill="white"/>
</svg>
