<svg width="80" height="80" viewBox="0 0 80 80" fill="none" xmlns="http://www.w3.org/2000/svg">
<path d="M30.8335 10C27.6168 10 25.0002 12.6167 25.0002 15.8333V26.6667H30.0002V15.8333C30.0002 15.3733 30.3752 15 30.8335 15H64.1668C64.6252 15 65.0002 15.3733 65.0002 15.8333V67.5C65.0002 68.8817 66.1202 70 67.5002 70C68.8802 70 70.0002 68.8817 70.0002 67.5V15.8333C70.0002 12.6167 67.3835 10 64.1668 10H30.8335ZM38.3302 20C35.5702 20 33.3335 22.2384 33.3335 24.9967C33.3335 27.7584 35.5702 30 38.3302 30C41.0952 30 43.3335 27.7584 43.3335 24.9967C43.3335 22.2384 41.0952 20 38.3302 20ZM54.1408 24.974C53.6433 24.9741 53.1571 25.1226 52.7444 25.4006C52.3318 25.6786 52.0115 26.0734 51.8245 26.5344C51.6375 26.9955 51.5923 27.5019 51.6947 27.9887C51.7971 28.4756 52.0424 28.9209 52.3993 29.2676L53.1317 30H47.5002C47.1689 29.9953 46.84 30.0565 46.5326 30.1801C46.2251 30.3036 45.9453 30.487 45.7094 30.7196C45.4735 30.9522 45.2861 31.2294 45.1583 31.535C45.0304 31.8407 44.9646 32.1687 44.9646 32.5C44.9646 32.8313 45.0304 33.1593 45.1583 33.465C45.2861 33.7706 45.4735 34.0478 45.7094 34.2804C45.9453 34.513 46.2251 34.6964 46.5326 34.8199C46.84 34.9435 47.1689 35.0047 47.5002 35H53.1317L52.3993 35.7324C52.1593 35.9628 51.9678 36.2387 51.8358 36.544C51.7039 36.8493 51.6341 37.1779 51.6308 37.5105C51.6274 37.8431 51.6904 38.1731 51.8161 38.481C51.9418 38.7889 52.1277 39.0687 52.3629 39.3039C52.5981 39.5391 52.8779 39.725 53.1858 39.8507C53.4938 39.9764 53.8237 40.0394 54.1563 40.0361C54.4889 40.0327 54.8175 39.963 55.1228 39.831C55.4281 39.6991 55.704 39.5075 55.9344 39.2676L60.9344 34.2676C61.4031 33.7987 61.6663 33.1629 61.6663 32.5C61.6663 31.8371 61.4031 31.2013 60.9344 30.7324L55.9344 25.7324C55.7014 25.4924 55.4226 25.3017 55.1145 25.1714C54.8064 25.0411 54.4753 24.974 54.1408 24.974ZM22.6662 30C22.1279 29.9998 21.6038 30.1733 21.172 30.4948L12.6727 36.8294C12.3997 37.0218 12.1681 37.267 11.9915 37.5504C11.8148 37.8338 11.6967 38.1498 11.6442 38.4796C11.5917 38.8094 11.6057 39.1463 11.6855 39.4706C11.7654 39.7949 11.9094 40.0999 12.109 40.3676C12.3087 40.6353 12.5599 40.8603 12.8479 41.0293C13.136 41.1983 13.4549 41.3079 13.786 41.3517C14.1171 41.3954 14.4536 41.3723 14.7756 41.2839C15.0976 41.1954 15.3987 41.0433 15.661 40.8366L23.493 35H26.4618L23.493 47.1419C23.398 47.5253 23.3335 47.9184 23.3335 48.3301C23.3335 50.4075 24.6008 52.1903 26.4032 52.946L35.2085 57.4674L36.6929 67.8548C36.7311 68.1868 36.8354 68.5079 36.9998 68.7989C37.1642 69.0899 37.3852 69.345 37.6499 69.5491C37.9145 69.7532 38.2174 69.9021 38.5407 69.9872C38.8639 70.0722 39.2009 70.0916 39.5317 70.0441C39.8625 69.9967 40.1805 69.8834 40.4668 69.7109C40.7531 69.5385 41.0019 69.3104 41.1985 69.0401C41.3952 68.7698 41.5356 68.4629 41.6116 68.1374C41.6875 67.812 41.6975 67.4746 41.6408 67.1452L39.9741 55.4785C39.8861 54.8695 39.5767 54.3144 39.105 53.9193L33.4084 48.584L35.3908 40.5534L38.7599 45.5632C38.9887 45.9029 39.2975 46.1812 39.6591 46.3736C40.0206 46.566 40.4239 46.6666 40.8335 46.6667H49.1668C49.4981 46.6714 49.827 46.6101 50.1344 46.4866C50.4419 46.3631 50.7217 46.1797 50.9576 45.9471C51.1935 45.7145 51.3809 45.4373 51.5087 45.1316C51.6366 44.826 51.7024 44.498 51.7024 44.1667C51.7024 43.8354 51.6366 43.5073 51.5087 43.2017C51.3809 42.8961 51.1935 42.6189 50.9576 42.3863C50.7217 42.1537 50.4419 41.9703 50.1344 41.8467C49.827 41.7232 49.4981 41.662 49.1668 41.6667H42.1649L36.0809 32.6204C36.0327 32.5461 35.9805 32.4744 35.9246 32.4056C35.0468 30.9681 33.4741 30 31.6636 30C31.5296 30 31.4041 30.0254 31.273 30.0358C31.1278 30.011 30.9808 29.999 30.8335 30H22.6662ZM20.6545 51.5299L18.3595 53.3333H10.8335C9.4535 53.3333 8.3335 54.4517 8.3335 55.8333C8.3335 57.215 9.4535 58.3333 10.8335 58.3333H19.1668C19.6918 58.3333 20.205 58.1664 20.6317 57.8581L25.2573 56.1035L24.9871 55.9635C22.9805 55.0835 21.4628 53.4749 20.6545 51.5299ZM30.0002 57.8711L25.0002 59.7656V67.5C25.0002 68.8817 26.1202 70 27.5002 70C28.8802 70 30.0002 68.8817 30.0002 67.5V57.8711Z" fill="white"/>
</svg>
