<svg width="80" height="80" viewBox="0 0 80 80" fill="none" xmlns="http://www.w3.org/2000/svg">
<path d="M40 8.33325C27.5167 8.33325 17.2168 17.8499 15.9668 29.9999H15C6.73333 29.9999 0 36.7333 0 44.9999C0 53.2666 6.73333 59.9999 15 59.9999H18.2324C18.9491 58.3666 19.5488 56.6999 20.0488 54.9999H15C9.48333 54.9999 5 50.5166 5 44.9999C5 39.4833 9.48333 34.9999 15 34.9999H18.3333C19.7167 34.9999 20.8333 33.8833 20.8333 32.4999C20.8333 21.9333 29.4333 13.3333 40 13.3333C50.5667 13.3333 59.1667 21.9333 59.1667 32.4999C59.1667 33.8833 60.2833 34.9999 61.6667 34.9999H65C70.5167 34.9999 75 39.4833 75 44.9999C75 50.5166 70.5167 54.9999 65 54.9999H59.9512C60.4512 56.6999 61.0509 58.3666 61.7676 59.9999H65C73.2667 59.9999 80 53.2666 80 44.9999C80 36.7333 73.2667 29.9999 65 29.9999H64.0332C62.7832 17.8499 52.4833 8.33325 40 8.33325ZM29.1276 36.6308C28.4651 36.6411 27.8339 36.914 27.3724 37.3895C26.911 37.8649 26.6572 38.5041 26.6667 39.1666V43.5286C26.6667 49.7847 25.3761 55.956 22.9329 61.6861C21.6533 61.7991 20.4663 62.4002 19.618 63.3649C18.7697 64.3295 18.3252 65.5836 18.3767 66.8672C18.4282 68.1507 18.9717 69.3652 19.8946 70.2588C20.8174 71.1523 22.0488 71.6565 23.3333 71.6666C24.2436 71.6657 25.1363 71.4163 25.9152 70.9454C26.6942 70.4744 27.3298 69.7998 27.7535 68.9942C28.1772 68.1886 28.373 67.2826 28.3197 66.3739C28.2665 65.4653 27.9661 64.5884 27.4512 63.8378C30.2119 57.4358 31.6667 50.5302 31.6667 43.5286V39.1666C31.6715 38.832 31.609 38.4998 31.4831 38.1898C31.3572 37.8797 31.1703 37.5981 30.9335 37.3616C30.6967 37.1252 30.4149 36.9386 30.1047 36.8131C29.7945 36.6875 29.4622 36.6255 29.1276 36.6308ZM39.9609 36.6308C39.2985 36.6411 38.6672 36.914 38.2058 37.3895C37.7443 37.8649 37.4905 38.5041 37.5 39.1666V62.3437C36.5504 62.8956 35.8089 63.7448 35.3901 64.7603C34.9713 65.7757 34.8986 66.9007 35.183 67.9616C35.4675 69.0225 36.0934 69.9602 36.9641 70.6299C37.8347 71.2995 38.9016 71.6639 40 71.6666C41.0994 71.6651 42.1677 71.3013 43.0395 70.6314C43.9113 69.9616 44.538 69.0231 44.8227 67.9612C45.1073 66.8993 45.034 65.7731 44.6142 64.7571C44.1943 63.741 43.4512 62.8916 42.5 62.3404V39.1666C42.5048 38.832 42.4424 38.4998 42.3164 38.1898C42.1905 37.8797 42.0036 37.5981 41.7668 37.3616C41.53 37.1252 41.2482 36.9386 40.938 36.8131C40.6278 36.6875 40.2955 36.6255 39.9609 36.6308ZM50.7943 36.6308C50.1318 36.6411 49.5005 36.914 49.0391 37.3895C48.5777 37.8649 48.3238 38.5041 48.3333 39.1666V43.5286C48.3333 50.5306 49.791 57.4354 52.5521 63.8378C52.0373 64.5881 51.737 65.4647 51.6836 66.3731C51.6302 67.2815 51.8257 68.1873 52.249 68.9927C52.6723 69.7982 53.3075 70.4729 54.0859 70.9441C54.8644 71.4153 55.7567 71.6651 56.6667 71.6666C57.9512 71.6565 59.1826 71.1523 60.1054 70.2588C61.0283 69.3652 61.5718 68.1507 61.6233 66.8672C61.6748 65.5836 61.2303 64.3295 60.382 63.3649C59.5337 62.4002 58.3467 61.7991 57.0671 61.6861C54.6239 55.956 53.3333 49.7847 53.3333 43.5286V39.1666C53.3381 38.832 53.2757 38.4998 53.1498 38.1898C53.0238 37.8797 52.8369 37.5981 52.6001 37.3616C52.3634 37.1252 52.0815 36.9386 51.7713 36.8131C51.4611 36.6875 51.1289 36.6255 50.7943 36.6308Z" fill="white"/>
</svg>
